<?xml version="1.0" encoding="UTF-8"?>
<svg width="1272px" height="914px" viewBox="0 0 1272 914" version="1.1" xmlns="http://www.w3.org/2000/svg" xmlns:xlink="http://www.w3.org/1999/xlink">
    <!-- Generator: Sketch 48.1 (47250) - http://www.bohemiancoding.com/sketch -->
    <title>Group Copy</title>
    <desc>Created with Sketch.</desc>
    <defs></defs>
    <g id="Urban-Harmony-Landing-Page" stroke="none" stroke-width="1" fill="none" fill-rule="evenodd" transform="translate(0.000000, -2199.000000)" opacity="0.454257246" stroke-opacity="0.727355072">
        <g id="مشروعات" transform="translate(0.000000, 2198.000000)" stroke="#B08868">
            <g id="Group-Copy">
                <rect id="Rectangle-4" x="0.5" y="30.5" width="182" height="182" rx="2"></rect>
                <rect id="Rectangle-4" transform="translate(446.500000, 469.500000) rotate(-68.000000) translate(-446.500000, -469.500000) " x="355.5" y="378.5" width="182" height="182" rx="2"></rect>
                <rect id="Rectangle-4" x="702.5" y="30.5" width="182" height="182" rx="2"></rect>
                <rect id="Rectangle-4" x="1048.5" y="30.5" width="182" height="182" rx="2"></rect>
                <rect id="Rectangle-4" x="0.5" y="378.5" width="182" height="182" rx="2"></rect>
                <rect id="Rectangle-4" x="1048.5" y="378.5" width="182" height="182" rx="2"></rect>
                <rect id="Rectangle-4" x="0.5" y="728.5" width="182" height="182" rx="2"></rect>
                <rect id="Rectangle-4" transform="translate(435.500000, 120.500000) rotate(-23.000000) translate(-435.500000, -120.500000) " x="344.5" y="29.5" width="182" height="182" rx="2"></rect>
                <rect id="Rectangle-4" transform="translate(790.500000, 467.500000) rotate(-23.000000) translate(-790.500000, -467.500000) " x="699.5" y="376.5" width="182" height="182" rx="2"></rect>
                <rect id="Rectangle-4" transform="translate(1143.500000, 799.500000) rotate(-48.000000) translate(-1143.500000, -799.500000) " x="1052.5" y="708.5" width="182" height="182" rx="2"></rect>
                <rect id="Rectangle-4" transform="translate(426.500000, 810.500000) rotate(-22.000000) translate(-426.500000, -810.500000) " x="335.5" y="719.5" width="182" height="182" rx="2"></rect>
                <rect id="Rectangle-4" transform="translate(790.500000, 811.500000) rotate(11.000000) translate(-790.500000, -811.500000) " x="699.5" y="720.5" width="182" height="182" rx="2"></rect>
            </g>
        </g>
    </g>
</svg>