<?xml version="1.0" encoding="UTF-8"?>
<svg width="50px" height="50px" viewBox="0 0 50 50" version="1.1" xmlns="http://www.w3.org/2000/svg" xmlns:xlink="http://www.w3.org/1999/xlink">
    <!-- Generator: Sketch 48.1 (47250) - http://www.bohemiancoding.com/sketch -->
    <title>Group 20</title>
    <desc>Created with Sketch.</desc>
    <defs>
        <polygon id="path-1" points="0.00840336134 0.0425977654 49.9676471 0.0425977654 49.9676471 49.8706704 0.00840336134 49.8706704"></polygon>
    </defs>
    <g id="Urban-Harmony-Landing-Page" stroke="none" stroke-width="1" fill="none" fill-rule="evenodd" transform="translate(-972.000000, -4162.000000)">
        <g id="Group-20" transform="translate(972.000000, 4162.000000)">
            <g id="Group-3">
                <mask id="mask-2" fill="white">
                    <use xlink:href="#path-1"></use>
                </mask>
                <g id="Clip-2"></g>
                <path d="M8.3267507,0 L41.6407563,0 C46.2190476,0 49.9676471,3.73798883 49.9676471,8.30363128 L49.9676471,41.5244413 C49.9676471,46.0900838 46.2190476,49.8280726 41.6407563,49.8280726 L8.3267507,49.8280726 C3.74831933,49.8280726 0,46.0900838 0,41.5244413 L0,8.30363128 C0,3.73798883 3.74831933,0 8.3267507,0" id="Fill-1" fill="#405689" mask="url(#mask-2)"></path>
                <path d="M27.1763305,19.0553073 L27.1763305,16.6942737 C27.1763305,15.5412011 27.945098,15.276676 28.4892157,15.276676 C29.0266106,15.276676 31.8091036,15.276676 31.8091036,15.276676 L31.8091036,10.2157821 L27.237535,10.1955307 C22.1557423,10.1955307 21.0060224,13.9673184 21.0060224,16.3822626 L21.0060224,19.0553073 L18.0672269,19.0553073 L18.0672269,24.9572626 L21.0264706,24.9572626 C21.0264706,31.6462291 21.0264706,39.7189944 21.0264706,39.7189944 L26.9518207,39.7189944 C26.9518207,39.7189944 26.9518207,31.5648045 26.9518207,24.9572626 L31.3464986,24.9572626 L31.8838936,19.0553073 L27.1763305,19.0553073" id="Fill-4" fill="#FFFFFE" mask="url(#mask-2)"></path>
            </g>
        </g>
    </g>
</svg>