<?xml version="1.0" encoding="UTF-8"?>
<svg width="50px" height="50px" viewBox="0 0 50 50" version="1.1" xmlns="http://www.w3.org/2000/svg" xmlns:xlink="http://www.w3.org/1999/xlink">
    <!-- Generator: Sketch 48.1 (47250) - http://www.bohemiancoding.com/sketch -->
    <title>Group 19</title>
    <desc>Created with Sketch.</desc>
    <defs></defs>
    <g id="Urban-Harmony-Landing-Page" stroke="none" stroke-width="1" fill="none" fill-rule="evenodd" transform="translate(-1046.000000, -4163.000000)">
        <g id="Group-19" transform="translate(1046.000000, 4163.000000)">
            <path d="M8.33211873,0 L41.6677411,0 C46.2491241,0 50,3.75075679 50,8.33230559 L50,41.6676944 C50,46.2492432 46.2491241,50 41.6677411,50 L8.33211873,50 C3.75101606,50 0,46.2492432 0,41.6676944 L0,8.33230559 C0,3.75075679 3.75101606,0 8.33211873,0" id="Fill-8" fill="#E05549"></path>
            <path d="M39.6968651,18.7434031 C39.6968651,18.7434031 39.4004002,16.5855301 38.5043356,15.6339824 C37.366728,14.3930244 36.0847907,14.3862114 35.4985312,14.310133 C31.3007649,14 25.0071668,14 25.0071668,14 L24.9934009,14 C24.9934009,14 18.6928488,14 14.4946568,14.310133 C13.908823,14.3862114 12.6335558,14.3930244 11.4891362,15.6339824 C10.5932135,16.5855301 10.3035607,18.7434031 10.3035607,18.7434031 C10.3035607,18.7434031 10,21.2735777 10,23.8036104 L10,26.1753829 C10,28.7125124 10.3035607,31.2425451 10.3035607,31.2425451 C10.3035607,31.2425451 10.5932135,33.40056 11.4891362,34.3452948 C12.6335558,35.5932077 14.1360323,35.551762 14.7982175,35.6824862 C17.2039964,35.9239216 25.0002129,36 25.0002129,36 C25.0002129,36 31.3007649,35.9858063 35.4985312,35.6688602 C36.0847907,35.5998787 37.366728,35.5932077 38.5043356,34.3452948 C39.4073541,33.393747 39.6968651,31.2425451 39.6968651,31.2425451 C39.6968651,31.2425451 40,28.7125124 40,26.1753829 L40,23.8036104 C40,21.2735777 39.6968651,18.7434031 39.6968651,18.7434031 Z M30.004636,24.6793636 L21.9051426,29.0574201 L21.8981887,22.314546 L21.8981887,20.2668163 L25.5515609,22.2525194 L30.004636,24.6793636 Z" id="Fill-9" fill="#FFFFFE"></path>
        </g>
    </g>
</svg>